USFL
nRows=252
nColumns=2
inDegrees=yes
endheader
time	tib_ant_r	
3.22681	 79.935701	
3.26008	 79.950638	
3.29335	 79.916282	
3.32661	 79.909957	
3.35988	 79.929366	
3.39315	 79.914596	
3.42641	 79.923822	
3.45968	 79.912846	
3.49294	 79.902340	
3.52621	 79.900849	
3.55948	 79.858440	
3.59274	 79.868499	
3.62601	 79.942244	
3.65927	 79.926341	
3.69254	 79.904683	
3.72581	 79.910220	
3.75907	 79.904652	
3.79234	 79.910500	
3.8256	 79.885809	
3.85887	 79.898319	
3.89214	 79.887738	
3.9254	 79.856513	
3.95867	 79.875156	
3.99194	 79.874841	
4.0252	 79.866078	
4.05847	 79.851145	
4.09173	 79.844336	
4.125	 79.850979	
4.15827	 79.853505	
4.19153	 79.866366	
4.2248	 79.865400	
4.25806	 79.851725	
4.29133	 79.833157	
4.3246	 79.832795	
4.35786	 79.862563	
4.39113	 79.865098	
4.4244	 79.864455	
4.45766	 79.855231	
4.49093	 79.855057	
4.52419	 79.888648	
4.55746	 79.929360	
4.59073	 79.918972	
4.62399	 79.917368	
4.65726	 79.925456	
4.69052	 79.919641	
4.72379	 79.924048	
4.75706	 79.913161	
4.79032	 79.905133	
4.82359	 79.917019	
4.85685	 79.924776	
4.89012	 79.911331	
4.92339	 79.892055	
4.95665	 79.909696	
4.98992	 79.977772	
5.02319	 80.057735	
5.05645	 79.673324	
5.08972	 78.892996	
5.12298	 78.282257	
5.15625	 77.564260	
5.18952	 77.491404	
5.22278	 76.897269	
5.25605	 76.643613	
5.28931	 76.705607	
5.32258	 76.440504	
5.35585	 76.389784	
5.38911	 76.415387	
5.42238	 76.304639	
5.45565	 75.863368	
5.48891	 75.293864	
5.52218	 74.503983	
5.55544	 74.423962	
5.58871	 73.756669	
5.62198	 73.099615	
5.65524	 73.035151	
5.68851	 72.522593	
5.72177	 72.241497	
5.75504	 72.162594	
5.78831	 71.803363	
5.82157	 71.594572	
5.85484	 71.538821	
5.8881	 71.656147	
5.92137	 71.561273	
5.95464	 71.553272	
5.9879	 71.696650	
6.02117	 71.612124	
6.05444	 71.808343	
6.0877	 71.818933	
6.12097	 71.622684	
6.15423	 71.798558	
6.1875	 71.926101	
6.22077	 72.175713	
6.25403	 72.311296	
6.2873	 72.355496	
6.32056	 72.335862	
6.35383	 72.396009	
6.3871	 72.427098	
6.42036	 72.350543	
6.45363	 72.281777	
6.4869	 72.298672	
6.52016	 72.263178	
6.55343	 72.251939	
6.58669	 72.311188	
6.61996	 72.317111	
6.65323	 72.320428	
6.68649	 72.313638	
6.71976	 72.301247	
6.75302	 72.228634	
6.78629	 72.313744	
6.81956	 72.316410	
6.85282	 72.273454	
6.88609	 72.214902	
6.91935	 72.220709	
6.95262	 72.272863	
6.98589	 72.286084	
7.01915	 72.264020	
7.05242	 72.206906	
7.08569	 72.135966	
7.11895	 72.117409	
7.15222	 72.101136	
7.18548	 72.058703	
7.21875	 72.028895	
7.25202	 72.003262	
7.28528	 71.991638	
7.31855	 71.952893	
7.35181	 71.849094	
7.38508	 71.793509	
7.41835	 71.783220	
7.45161	 71.733544	
7.48488	 71.792102	
7.51815	 71.759150	
7.55141	 71.774544	
7.58468	 71.732031	
7.61794	 71.739410	
7.65121	 71.817555	
7.68448	 71.876813	
7.71774	 71.848043	
7.75101	 71.837985	
7.78427	 71.819501	
7.81754	 71.865681	
7.85081	 71.809427	
7.88407	 71.868967	
7.91734	 71.903976	
7.9506	 72.039354	
7.98387	 72.177143	
8.01714	 72.275513	
8.0504	 72.383629	
8.08367	 72.337507	
8.11694	 72.331943	
8.1502	 72.262969	
8.18347	 72.145602	
8.21673	 72.154541	
8.25	 72.203375	
8.28327	 72.205517	
8.31653	 72.244933	
8.3498	 72.209905	
8.38306	 72.159300	
8.41633	 72.192287	
8.4496	 72.162051	
8.48286	 72.168680	
8.51613	 72.173160	
8.5494	 72.212144	
8.58266	 72.245146	
8.61593	 72.289991	
8.64919	 72.275875	
8.68246	 72.244580	
8.71573	 72.340581	
8.74899	 72.348702	
8.78226	 72.359573	
8.81552	 72.422155	
8.84879	 72.388393	
8.88206	 72.383135	
8.91532	 72.412366	
8.94859	 72.406291	
8.98185	 72.403213	
9.01512	 72.384792	
9.04839	 72.356131	
9.08165	 72.363839	
9.11492	 72.368483	
9.14819	 72.389493	
9.18145	 72.426047	
9.21472	 72.423694	
9.24798	 72.430586	
9.28125	 72.363001	
9.31452	 72.349649	
9.34778	 72.406863	
9.38105	 72.477338	
9.41431	 72.492072	
9.44758	 72.559350	
9.48085	 72.591767	
9.51411	 72.599796	
9.54738	 72.695289	
9.58065	 72.687887	
9.61391	 72.743535	
9.64718	 72.735586	
9.68044	 72.730887	
9.71371	 72.827247	
9.74698	 72.879178	
9.78024	 72.903860	
9.81351	 72.869639	
9.84677	 72.795796	
9.88004	 72.800894	
9.91331	 72.850796	
9.94657	 72.847143	
9.97984	 72.757730	
10.0131	 72.745198	
10.0464	 72.725609	
10.0796	 72.599465	
10.1129	 72.424095	
10.1462	 72.315962	
10.1794	 72.105192	
10.2127	 72.076611	
10.246	 72.054893	
10.2792	 71.693927	
10.3125	 71.639092	
10.3458	 71.557670	
10.379	 71.573225	
10.4123	 71.532113	
10.4456	 71.406401	
10.4788	 71.329821	
10.5121	 71.279541	
10.5454	 71.314892	
10.5786	 71.321727	
10.6119	 71.350425	
10.6452	 71.226728	
10.6784	 71.237636	
10.7117	 71.253851	
10.745	 71.323953	
10.7782	 71.343680	
10.8115	 71.404621	
10.8448	 71.407520	
10.878	 71.420345	
10.9113	 71.381567	
10.9446	 71.343407	
10.9778	 71.346504	
11.0111	 71.355419	
11.0444	 71.322900	
11.0776	 71.411293	
11.1109	 71.489680	
11.1442	 71.527208	
11.1774	 71.668273	
11.2107	 71.753462	
11.244	 71.817043	
11.2772	 71.853822	
11.3105	 71.888260	
11.3437	 71.984698	
11.377	 72.062411	
11.4103	 72.150799	
11.4435	 72.358657	
11.4768	 72.552285	
11.5101	 72.653402	
11.5433	 72.908767	
11.5766	 73.248934	
